<?xml version="1.0" encoding="UTF-8" standalone="no"?>
<!DOCTYPE svg PUBLIC "-//W3C//DTD SVG 1.1//EN"
 "http://www.w3.org/Graphics/SVG/1.1/DTD/svg11.dtd">
<!-- Generated by graphviz version 2.43.0 (0)
 -->
<!-- Title: G Pages: 1 -->
<svg width="1690pt" height="1440pt"
 viewBox="0.00 0.00 1690.00 1440.00" xmlns="http://www.w3.org/2000/svg" xmlns:xlink="http://www.w3.org/1999/xlink">
<g id="graph0" class="graph" transform="scale(1 1) rotate(0) translate(4 1436)">
<title>G</title>
<polygon fill="white" stroke="transparent" points="-4,4 -4,-1436 1686,-1436 1686,4 -4,4"/>
<g id="clust1" class="cluster">
<title>cluster_module.alb</title>
<polygon fill="none" stroke="black" points="225,-361 225,-490 1039.5,-490 1039.5,-361 225,-361"/>
<text text-anchor="middle" x="632.25" y="-474.8" font-family="sans-serif" font-size="14.00">module.alb</text>
</g>
<g id="clust2" class="cluster">
<title>cluster_module.compute</title>
<polygon fill="none" stroke="black" points="241,-8 241,-353 1674,-353 1674,-8 241,-8"/>
<text text-anchor="middle" x="957.5" y="-337.8" font-family="sans-serif" font-size="14.00">module.compute</text>
</g>
<g id="clust3" class="cluster">
<title>cluster_module.db</title>
<polygon fill="none" stroke="black" points="820,-564 820,-801 1387.5,-801 1387.5,-564 820,-564"/>
<text text-anchor="middle" x="1103.75" y="-785.8" font-family="sans-serif" font-size="14.00">module.db</text>
</g>
<g id="clust4" class="cluster">
<title>cluster_module.vpc</title>
<polygon fill="none" stroke="black" points="8,-809 8,-1424 1047.5,-1424 1047.5,-809 8,-809"/>
<text text-anchor="middle" x="527.75" y="-1408.8" font-family="sans-serif" font-size="14.00">module.vpc</text>
</g>
<!-- module.alb.aws_lb.two&#45;tier&#45;lb -->
<g id="node1" class="node">
<title>module.alb.aws_lb.two&#45;tier&#45;lb</title>
<polygon fill="none" stroke="black" points="710.5,-405 572.5,-405 572.5,-369 710.5,-369 710.5,-405"/>
<text text-anchor="middle" x="641.5" y="-383.3" font-family="sans-serif" font-size="14.00">aws_lb.two&#45;tier&#45;lb</text>
</g>
<!-- module.alb.aws_security_group.alb_sg -->
<g id="node4" class="node">
<title>module.alb.aws_security_group.alb_sg</title>
<polygon fill="none" stroke="black" points="435,-405 233,-405 233,-369 435,-369 435,-405"/>
<text text-anchor="middle" x="334" y="-383.3" font-family="sans-serif" font-size="14.00">aws_security_group.alb_sg</text>
</g>
<!-- module.alb.aws_lb.two&#45;tier&#45;lb&#45;&gt;module.alb.aws_security_group.alb_sg -->
<g id="edge1" class="edge">
<title>module.alb.aws_lb.two&#45;tier&#45;lb&#45;&gt;module.alb.aws_security_group.alb_sg</title>
<path fill="none" stroke="black" d="M572.32,-387C534.96,-387 487.74,-387 445.27,-387"/>
<polygon fill="black" stroke="black" points="445.16,-383.5 435.16,-387 445.16,-390.5 445.16,-383.5"/>
</g>
<!-- module.vpc.aws_subnet.alb_pub1 -->
<g id="node36" class="node">
<title>module.vpc.aws_subnet.alb_pub1</title>
<polygon fill="none" stroke="black" points="417.5,-907 250.5,-907 250.5,-871 417.5,-871 417.5,-907"/>
<text text-anchor="middle" x="334" y="-885.3" font-family="sans-serif" font-size="14.00">aws_subnet.alb_pub1</text>
</g>
<!-- module.alb.aws_lb.two&#45;tier&#45;lb&#45;&gt;module.vpc.aws_subnet.alb_pub1 -->
<g id="edge2" class="edge">
<title>module.alb.aws_lb.two&#45;tier&#45;lb&#45;&gt;module.vpc.aws_subnet.alb_pub1</title>
<path fill="none" stroke="black" d="M572.17,-382.14C543.04,-383.93 511.19,-391.72 491,-414 423.94,-488.01 520.47,-786.57 455,-862 447.48,-870.67 437.82,-876.89 427.26,-881.3"/>
<polygon fill="black" stroke="black" points="425.99,-878.04 417.78,-884.74 428.37,-884.62 425.99,-878.04"/>
</g>
<!-- module.vpc.aws_subnet.alb_pub2 -->
<g id="node37" class="node">
<title>module.vpc.aws_subnet.alb_pub2</title>
<polygon fill="none" stroke="black" points="417.5,-1069 250.5,-1069 250.5,-1033 417.5,-1033 417.5,-1069"/>
<text text-anchor="middle" x="334" y="-1047.3" font-family="sans-serif" font-size="14.00">aws_subnet.alb_pub2</text>
</g>
<!-- module.alb.aws_lb.two&#45;tier&#45;lb&#45;&gt;module.vpc.aws_subnet.alb_pub2 -->
<g id="edge3" class="edge">
<title>module.alb.aws_lb.two&#45;tier&#45;lb&#45;&gt;module.vpc.aws_subnet.alb_pub2</title>
<path fill="none" stroke="black" d="M572.33,-381.92C543.06,-383.62 511.04,-391.41 491,-414 400.9,-515.59 542.92,-920.51 455,-1024 447.51,-1032.81 437.83,-1039.1 427.21,-1043.55"/>
<polygon fill="black" stroke="black" points="425.88,-1040.3 417.66,-1046.99 428.26,-1046.89 425.88,-1040.3"/>
</g>
<!-- module.alb.aws_lb_listener.http -->
<g id="node2" class="node">
<title>module.alb.aws_lb_listener.http</title>
<polygon fill="none" stroke="black" points="1031.5,-407 878.5,-407 878.5,-371 1031.5,-371 1031.5,-407"/>
<text text-anchor="middle" x="955" y="-385.3" font-family="sans-serif" font-size="14.00">aws_lb_listener.http</text>
</g>
<!-- module.alb.aws_lb_listener.http&#45;&gt;module.alb.aws_lb.two&#45;tier&#45;lb -->
<g id="edge4" class="edge">
<title>module.alb.aws_lb_listener.http&#45;&gt;module.alb.aws_lb.two&#45;tier&#45;lb</title>
<path fill="none" stroke="black" d="M878.2,-388.51C830.45,-388.21 768.95,-387.81 720.74,-387.5"/>
<polygon fill="black" stroke="black" points="720.69,-384 710.66,-387.44 720.64,-391 720.69,-384"/>
</g>
<!-- module.alb.aws_lb_target_group.two&#45;tier&#45;tg -->
<g id="node3" class="node">
<title>module.alb.aws_lb_target_group.two&#45;tier&#45;tg</title>
<polygon fill="none" stroke="black" points="759,-459 524,-459 524,-423 759,-423 759,-459"/>
<text text-anchor="middle" x="641.5" y="-437.3" font-family="sans-serif" font-size="14.00">aws_lb_target_group.two&#45;tier&#45;tg</text>
</g>
<!-- module.alb.aws_lb_listener.http&#45;&gt;module.alb.aws_lb_target_group.two&#45;tier&#45;tg -->
<g id="edge5" class="edge">
<title>module.alb.aws_lb_listener.http&#45;&gt;module.alb.aws_lb_target_group.two&#45;tier&#45;tg</title>
<path fill="none" stroke="black" d="M878.2,-401.65C842.83,-407.56 799.93,-414.72 760.47,-421.31"/>
<polygon fill="black" stroke="black" points="759.8,-417.87 750.52,-422.97 760.96,-424.77 759.8,-417.87"/>
</g>
<!-- module.vpc.aws_vpc.two&#45;tier&#45;vpc -->
<g id="node43" class="node">
<title>module.vpc.aws_vpc.two&#45;tier&#45;vpc</title>
<polygon fill="none" stroke="black" points="177,-1015 16,-1015 16,-979 177,-979 177,-1015"/>
<text text-anchor="middle" x="96.5" y="-993.3" font-family="sans-serif" font-size="14.00">aws_vpc.two&#45;tier&#45;vpc</text>
</g>
<!-- module.alb.aws_lb_target_group.two&#45;tier&#45;tg&#45;&gt;module.vpc.aws_vpc.two&#45;tier&#45;vpc -->
<g id="edge6" class="edge">
<title>module.alb.aws_lb_target_group.two&#45;tier&#45;tg&#45;&gt;module.vpc.aws_vpc.two&#45;tier&#45;vpc</title>
<path fill="none" stroke="black" d="M566.67,-459.03C541.36,-467.26 513.72,-478.68 491,-494 295.84,-625.64 153.73,-884.91 110.91,-969.56"/>
<polygon fill="black" stroke="black" points="107.76,-968.04 106.41,-978.55 114.02,-971.18 107.76,-968.04"/>
</g>
<!-- module.alb.aws_security_group.alb_sg&#45;&gt;module.vpc.aws_vpc.two&#45;tier&#45;vpc -->
<g id="edge7" class="edge">
<title>module.alb.aws_security_group.alb_sg&#45;&gt;module.vpc.aws_vpc.two&#45;tier&#45;vpc</title>
<path fill="none" stroke="black" d="M320.92,-405.17C297.41,-441.2 244.98,-524.81 213,-601 157.21,-733.92 117.74,-902.65 103.43,-968.69"/>
<polygon fill="black" stroke="black" points="99.94,-968.23 101.27,-978.74 106.79,-969.7 99.94,-968.23"/>
</g>
<!-- module.compute.data.aws_ssm_parameter.two&#45;tier&#45;ami -->
<g id="node5" class="node">
<title>module.compute.data.aws_ssm_parameter.two&#45;tier&#45;ami</title>
<polygon fill="none" stroke="black" points="781.5,-160 501.5,-160 501.5,-124 781.5,-124 781.5,-160"/>
<text text-anchor="middle" x="641.5" y="-138.3" font-family="sans-serif" font-size="14.00">data.aws_ssm_parameter.two&#45;tier&#45;ami</text>
</g>
<!-- module.compute.aws_autoscaling_group.two_tier_asg -->
<g id="node6" class="node">
<title>module.compute.aws_autoscaling_group.two_tier_asg</title>
<polygon fill="none" stroke="black" points="1386,-322 1118,-322 1118,-286 1386,-286 1386,-322"/>
<text text-anchor="middle" x="1252" y="-300.3" font-family="sans-serif" font-size="14.00">aws_autoscaling_group.two_tier_asg</text>
</g>
<!-- module.compute.aws_autoscaling_group.two_tier_asg&#45;&gt;module.alb.aws_lb_target_group.two&#45;tier&#45;tg -->
<g id="edge8" class="edge">
<title>module.compute.aws_autoscaling_group.two_tier_asg&#45;&gt;module.alb.aws_lb_target_group.two&#45;tier&#45;tg</title>
<path fill="none" stroke="black" d="M1231.55,-322.03C1201.9,-348.23 1142.45,-395.9 1082,-416 980.75,-449.67 859.21,-454.05 769.63,-451.07"/>
<polygon fill="black" stroke="black" points="769.54,-447.57 759.42,-450.7 769.29,-454.56 769.54,-447.57"/>
</g>
<!-- module.compute.aws_launch_template.two_tier_lt -->
<g id="node13" class="node">
<title>module.compute.aws_launch_template.two_tier_lt</title>
<polygon fill="none" stroke="black" points="1075,-268 835,-268 835,-232 1075,-232 1075,-268"/>
<text text-anchor="middle" x="955" y="-246.3" font-family="sans-serif" font-size="14.00">aws_launch_template.two_tier_lt</text>
</g>
<!-- module.compute.aws_autoscaling_group.two_tier_asg&#45;&gt;module.compute.aws_launch_template.two_tier_lt -->
<g id="edge9" class="edge">
<title>module.compute.aws_autoscaling_group.two_tier_asg&#45;&gt;module.compute.aws_launch_template.two_tier_lt</title>
<path fill="none" stroke="black" d="M1152.36,-285.94C1124.19,-280.79 1093.34,-275.14 1064.61,-269.88"/>
<polygon fill="black" stroke="black" points="1065.01,-266.4 1054.55,-268.04 1063.75,-273.28 1065.01,-266.4"/>
</g>
<!-- module.vpc.aws_subnet.web_priv1 -->
<g id="node41" class="node">
<title>module.vpc.aws_subnet.web_priv1</title>
<polygon fill="none" stroke="black" points="421,-853 247,-853 247,-817 421,-817 421,-853"/>
<text text-anchor="middle" x="334" y="-831.3" font-family="sans-serif" font-size="14.00">aws_subnet.web_priv1</text>
</g>
<!-- module.compute.aws_autoscaling_group.two_tier_asg&#45;&gt;module.vpc.aws_subnet.web_priv1 -->
<g id="edge10" class="edge">
<title>module.compute.aws_autoscaling_group.two_tier_asg&#45;&gt;module.vpc.aws_subnet.web_priv1</title>
<path fill="none" stroke="black" d="M1241.5,-322.03C1219.57,-361.56 1161.15,-455.37 1082,-494 963.73,-551.72 592.36,-448.06 491,-532 441.52,-572.98 482.55,-613.96 455,-672 429.69,-725.33 385.92,-778.86 358.82,-809.36"/>
<polygon fill="black" stroke="black" points="356.06,-807.19 351.98,-816.97 361.27,-811.87 356.06,-807.19"/>
</g>
<!-- module.vpc.aws_subnet.web_priv2 -->
<g id="node42" class="node">
<title>module.vpc.aws_subnet.web_priv2</title>
<polygon fill="none" stroke="black" points="421,-961 247,-961 247,-925 421,-925 421,-961"/>
<text text-anchor="middle" x="334" y="-939.3" font-family="sans-serif" font-size="14.00">aws_subnet.web_priv2</text>
</g>
<!-- module.compute.aws_autoscaling_group.two_tier_asg&#45;&gt;module.vpc.aws_subnet.web_priv2 -->
<g id="edge11" class="edge">
<title>module.compute.aws_autoscaling_group.two_tier_asg&#45;&gt;module.vpc.aws_subnet.web_priv2</title>
<path fill="none" stroke="black" d="M1242.43,-322.3C1221.62,-364.52 1164,-468.8 1082,-517 980.27,-576.79 932.02,-522.9 820,-560 663.76,-611.74 589.62,-598.23 491,-730 440.55,-797.41 513.64,-855.57 455,-916 448.03,-923.18 439.59,-928.64 430.45,-932.77"/>
<polygon fill="black" stroke="black" points="429.12,-929.53 421.11,-936.46 431.69,-936.04 429.12,-929.53"/>
</g>
<!-- module.compute.aws_autoscaling_policy.scale_out -->
<g id="node7" class="node">
<title>module.compute.aws_autoscaling_policy.scale_out</title>
<polygon fill="none" stroke="black" points="1666,-322 1422,-322 1422,-286 1666,-286 1666,-322"/>
<text text-anchor="middle" x="1544" y="-300.3" font-family="sans-serif" font-size="14.00">aws_autoscaling_policy.scale_out</text>
</g>
<!-- module.compute.aws_autoscaling_policy.scale_out&#45;&gt;module.compute.aws_autoscaling_group.two_tier_asg -->
<g id="edge12" class="edge">
<title>module.compute.aws_autoscaling_policy.scale_out&#45;&gt;module.compute.aws_autoscaling_group.two_tier_asg</title>
<path fill="none" stroke="black" d="M1421.69,-304C1413.42,-304 1405.04,-304 1396.66,-304"/>
<polygon fill="black" stroke="black" points="1396.45,-300.5 1386.45,-304 1396.45,-307.5 1396.45,-300.5"/>
</g>
<!-- module.compute.aws_iam_instance_profile.ec2_profile -->
<g id="node8" class="node">
<title>module.compute.aws_iam_instance_profile.ec2_profile</title>
<polygon fill="none" stroke="black" points="777,-268 506,-268 506,-232 777,-232 777,-268"/>
<text text-anchor="middle" x="641.5" y="-246.3" font-family="sans-serif" font-size="14.00">aws_iam_instance_profile.ec2_profile</text>
</g>
<!-- module.compute.aws_iam_role.ec2_role -->
<g id="node9" class="node">
<title>module.compute.aws_iam_role.ec2_role</title>
<polygon fill="none" stroke="black" points="419,-241 249,-241 249,-205 419,-205 419,-241"/>
<text text-anchor="middle" x="334" y="-219.3" font-family="sans-serif" font-size="14.00">aws_iam_role.ec2_role</text>
</g>
<!-- module.compute.aws_iam_instance_profile.ec2_profile&#45;&gt;module.compute.aws_iam_role.ec2_role -->
<g id="edge13" class="edge">
<title>module.compute.aws_iam_instance_profile.ec2_profile&#45;&gt;module.compute.aws_iam_role.ec2_role</title>
<path fill="none" stroke="black" d="M505.61,-238.08C479.88,-235.8 453.46,-233.47 429.33,-231.34"/>
<polygon fill="black" stroke="black" points="429.41,-227.83 419.14,-230.44 428.79,-234.8 429.41,-227.83"/>
</g>
<!-- module.compute.aws_iam_role_policy.ec2_policy -->
<g id="node10" class="node">
<title>module.compute.aws_iam_role_policy.ec2_policy</title>
<polygon fill="none" stroke="black" points="756.5,-214 526.5,-214 526.5,-178 756.5,-178 756.5,-214"/>
<text text-anchor="middle" x="641.5" y="-192.3" font-family="sans-serif" font-size="14.00">aws_iam_role_policy.ec2_policy</text>
</g>
<!-- module.compute.aws_iam_role_policy.ec2_policy&#45;&gt;module.compute.aws_iam_role.ec2_role -->
<g id="edge14" class="edge">
<title>module.compute.aws_iam_role_policy.ec2_policy&#45;&gt;module.compute.aws_iam_role.ec2_role</title>
<path fill="none" stroke="black" d="M526.31,-206.09C494.33,-208.92 459.95,-211.96 429.26,-214.67"/>
<polygon fill="black" stroke="black" points="428.66,-211.21 419.01,-215.58 429.28,-218.18 428.66,-211.21"/>
</g>
<!-- module.compute.aws_instance.bastion -->
<g id="node11" class="node">
<title>module.compute.aws_instance.bastion</title>
<polygon fill="none" stroke="black" points="1037,-133 873,-133 873,-97 1037,-97 1037,-133"/>
<text text-anchor="middle" x="955" y="-111.3" font-family="sans-serif" font-size="14.00">aws_instance.bastion</text>
</g>
<!-- module.compute.aws_instance.bastion&#45;&gt;module.compute.data.aws_ssm_parameter.two&#45;tier&#45;ami -->
<g id="edge15" class="edge">
<title>module.compute.aws_instance.bastion&#45;&gt;module.compute.data.aws_ssm_parameter.two&#45;tier&#45;ami</title>
<path fill="none" stroke="black" d="M872.97,-122.02C848.09,-124.18 819.86,-126.63 791.92,-129.05"/>
<polygon fill="black" stroke="black" points="791.3,-125.59 781.64,-129.94 791.9,-132.56 791.3,-125.59"/>
</g>
<!-- module.compute.aws_key_pair.two_tier_key -->
<g id="node12" class="node">
<title>module.compute.aws_key_pair.two_tier_key</title>
<polygon fill="none" stroke="black" points="740,-106 543,-106 543,-70 740,-70 740,-106"/>
<text text-anchor="middle" x="641.5" y="-84.3" font-family="sans-serif" font-size="14.00">aws_key_pair.two_tier_key</text>
</g>
<!-- module.compute.aws_instance.bastion&#45;&gt;module.compute.aws_key_pair.two_tier_key -->
<g id="edge16" class="edge">
<title>module.compute.aws_instance.bastion&#45;&gt;module.compute.aws_key_pair.two_tier_key</title>
<path fill="none" stroke="black" d="M872.97,-107.98C835.5,-104.73 790.46,-100.82 750.18,-97.33"/>
<polygon fill="black" stroke="black" points="750.31,-93.83 740.05,-96.46 749.71,-100.81 750.31,-93.83"/>
</g>
<!-- module.compute.aws_security_group.bastion_sg -->
<g id="node14" class="node">
<title>module.compute.aws_security_group.bastion_sg</title>
<polygon fill="none" stroke="black" points="757.5,-52 525.5,-52 525.5,-16 757.5,-16 757.5,-52"/>
<text text-anchor="middle" x="641.5" y="-30.3" font-family="sans-serif" font-size="14.00">aws_security_group.bastion_sg</text>
</g>
<!-- module.compute.aws_instance.bastion&#45;&gt;module.compute.aws_security_group.bastion_sg -->
<g id="edge17" class="edge">
<title>module.compute.aws_instance.bastion&#45;&gt;module.compute.aws_security_group.bastion_sg</title>
<path fill="none" stroke="black" d="M905.98,-96.98C874.02,-85.49 830.92,-70.95 792,-61 782.51,-58.58 772.63,-56.29 762.68,-54.14"/>
<polygon fill="black" stroke="black" points="763.21,-50.68 752.7,-52.05 761.77,-57.53 763.21,-50.68"/>
</g>
<!-- module.vpc.aws_subnet.bastion_pub -->
<g id="node38" class="node">
<title>module.vpc.aws_subnet.bastion_pub</title>
<polygon fill="none" stroke="black" points="428,-1285 240,-1285 240,-1249 428,-1249 428,-1285"/>
<text text-anchor="middle" x="334" y="-1263.3" font-family="sans-serif" font-size="14.00">aws_subnet.bastion_pub</text>
</g>
<!-- module.compute.aws_instance.bastion&#45;&gt;module.vpc.aws_subnet.bastion_pub -->
<g id="edge18" class="edge">
<title>module.compute.aws_instance.bastion&#45;&gt;module.vpc.aws_subnet.bastion_pub</title>
<path fill="none" stroke="black" d="M918.21,-133.16C886.57,-151.3 842.11,-182.31 820,-223 762.19,-329.4 838.66,-382.27 792,-494 710.84,-688.34 571.34,-665.31 491,-860 458.65,-938.41 511.06,-1176.34 455,-1240 449.95,-1245.73 443.98,-1250.39 437.43,-1254.16"/>
<polygon fill="black" stroke="black" points="435.57,-1251.17 428.18,-1258.77 438.69,-1257.44 435.57,-1251.17"/>
</g>
<!-- module.compute.aws_launch_template.two_tier_lt&#45;&gt;module.compute.data.aws_ssm_parameter.two&#45;tier&#45;ami -->
<g id="edge19" class="edge">
<title>module.compute.aws_launch_template.two_tier_lt&#45;&gt;module.compute.data.aws_ssm_parameter.two&#45;tier&#45;ami</title>
<path fill="none" stroke="black" d="M924.36,-231.93C892.69,-213.42 840.48,-185.13 792,-169 784.95,-166.66 777.65,-164.5 770.22,-162.52"/>
<polygon fill="black" stroke="black" points="770.97,-159.1 760.41,-160.02 769.24,-165.88 770.97,-159.1"/>
</g>
<!-- module.compute.aws_launch_template.two_tier_lt&#45;&gt;module.compute.aws_iam_instance_profile.ec2_profile -->
<g id="edge20" class="edge">
<title>module.compute.aws_launch_template.two_tier_lt&#45;&gt;module.compute.aws_iam_instance_profile.ec2_profile</title>
<path fill="none" stroke="black" d="M834.9,-250C819.4,-250 803.39,-250 787.53,-250"/>
<polygon fill="black" stroke="black" points="787.13,-246.5 777.13,-250 787.13,-253.5 787.13,-246.5"/>
</g>
<!-- module.compute.aws_launch_template.two_tier_lt&#45;&gt;module.compute.aws_key_pair.two_tier_key -->
<g id="edge21" class="edge">
<title>module.compute.aws_launch_template.two_tier_lt&#45;&gt;module.compute.aws_key_pair.two_tier_key</title>
<path fill="none" stroke="black" d="M930.24,-231.88C903.04,-210.91 857.42,-175.01 820,-142 807.03,-130.56 807.39,-122.87 792,-115 779.03,-108.36 764.69,-103.33 750.18,-99.52"/>
<polygon fill="black" stroke="black" points="750.67,-96.04 740.13,-97.08 749.02,-102.84 750.67,-96.04"/>
</g>
<!-- module.compute.aws_security_group.two_tier_sg -->
<g id="node15" class="node">
<title>module.compute.aws_security_group.two_tier_sg</title>
<polygon fill="none" stroke="black" points="759.5,-322 523.5,-322 523.5,-286 759.5,-286 759.5,-322"/>
<text text-anchor="middle" x="641.5" y="-300.3" font-family="sans-serif" font-size="14.00">aws_security_group.two_tier_sg</text>
</g>
<!-- module.compute.aws_launch_template.two_tier_lt&#45;&gt;module.compute.aws_security_group.two_tier_sg -->
<g id="edge22" class="edge">
<title>module.compute.aws_launch_template.two_tier_lt&#45;&gt;module.compute.aws_security_group.two_tier_sg</title>
<path fill="none" stroke="black" d="M849.84,-268.06C819.97,-273.24 787.24,-278.91 756.79,-284.19"/>
<polygon fill="black" stroke="black" points="755.82,-280.8 746.56,-285.96 757.01,-287.7 755.82,-280.8"/>
</g>
<!-- module.compute.aws_security_group.bastion_sg&#45;&gt;module.vpc.aws_vpc.two&#45;tier&#45;vpc -->
<g id="edge23" class="edge">
<title>module.compute.aws_security_group.bastion_sg&#45;&gt;module.vpc.aws_vpc.two&#45;tier&#45;vpc</title>
<path fill="none" stroke="black" d="M525.32,-43.66C425.16,-58.73 285.11,-97.31 213,-196 120.08,-323.18 101.33,-842.03 98.1,-968.9"/>
<polygon fill="black" stroke="black" points="94.6,-968.9 97.86,-978.98 101.6,-969.07 94.6,-968.9"/>
</g>
<!-- module.compute.aws_security_group.two_tier_sg&#45;&gt;module.alb.aws_security_group.alb_sg -->
<g id="edge24" class="edge">
<title>module.compute.aws_security_group.two_tier_sg&#45;&gt;module.alb.aws_security_group.alb_sg</title>
<path fill="none" stroke="black" d="M579.23,-322.06C543.15,-332.56 496.57,-345.87 455,-357 443.22,-360.16 430.75,-363.39 418.49,-366.51"/>
<polygon fill="black" stroke="black" points="417.55,-363.14 408.72,-368.98 419.27,-369.92 417.55,-363.14"/>
</g>
<!-- module.db.aws_db_instance.two_tier_db -->
<g id="node16" class="node">
<title>module.db.aws_db_instance.two_tier_db</title>
<polygon fill="none" stroke="black" points="1361,-770 1143,-770 1143,-734 1361,-734 1361,-770"/>
<text text-anchor="middle" x="1252" y="-748.3" font-family="sans-serif" font-size="14.00">aws_db_instance.two_tier_db</text>
</g>
<!-- module.db.aws_db_subnet_group.two_tier_db -->
<g id="node17" class="node">
<title>module.db.aws_db_subnet_group.two_tier_db</title>
<polygon fill="none" stroke="black" points="1082,-770 828,-770 828,-734 1082,-734 1082,-770"/>
<text text-anchor="middle" x="955" y="-748.3" font-family="sans-serif" font-size="14.00">aws_db_subnet_group.two_tier_db</text>
</g>
<!-- module.db.aws_db_instance.two_tier_db&#45;&gt;module.db.aws_db_subnet_group.two_tier_db -->
<g id="edge25" class="edge">
<title>module.db.aws_db_instance.two_tier_db&#45;&gt;module.db.aws_db_subnet_group.two_tier_db</title>
<path fill="none" stroke="black" d="M1142.83,-752C1126.49,-752 1109.45,-752 1092.61,-752"/>
<polygon fill="black" stroke="black" points="1092.15,-748.5 1082.15,-752 1092.15,-755.5 1092.15,-748.5"/>
</g>
<!-- module.db.aws_security_group.rds_sg -->
<g id="node18" class="node">
<title>module.db.aws_security_group.rds_sg</title>
<polygon fill="none" stroke="black" points="1056.5,-663 853.5,-663 853.5,-627 1056.5,-627 1056.5,-663"/>
<text text-anchor="middle" x="955" y="-641.3" font-family="sans-serif" font-size="14.00">aws_security_group.rds_sg</text>
</g>
<!-- module.db.aws_db_instance.two_tier_db&#45;&gt;module.db.aws_security_group.rds_sg -->
<g id="edge26" class="edge">
<title>module.db.aws_db_instance.two_tier_db&#45;&gt;module.db.aws_security_group.rds_sg</title>
<path fill="none" stroke="black" d="M1148.26,-733.93C1137.94,-731.29 1127.7,-728.32 1118,-725 1074.51,-710.13 1027.73,-686.07 995.67,-668.21"/>
<polygon fill="black" stroke="black" points="997.06,-664.98 986.63,-663.12 993.63,-671.08 997.06,-664.98"/>
</g>
<!-- module.vpc.aws_subnet.db_priv1 -->
<g id="node39" class="node">
<title>module.vpc.aws_subnet.db_priv1</title>
<polygon fill="none" stroke="black" points="416,-1015 252,-1015 252,-979 416,-979 416,-1015"/>
<text text-anchor="middle" x="334" y="-993.3" font-family="sans-serif" font-size="14.00">aws_subnet.db_priv1</text>
</g>
<!-- module.db.aws_db_subnet_group.two_tier_db&#45;&gt;module.vpc.aws_subnet.db_priv1 -->
<g id="edge27" class="edge">
<title>module.db.aws_db_subnet_group.two_tier_db&#45;&gt;module.vpc.aws_subnet.db_priv1</title>
<path fill="none" stroke="black" d="M827.87,-736.07C724.46,-730.41 580.97,-740.62 491,-823 441.39,-868.42 503.01,-922.89 455,-970 446.75,-978.1 436.62,-983.98 425.78,-988.22"/>
<polygon fill="black" stroke="black" points="424.42,-984.98 416.09,-991.53 426.69,-991.6 424.42,-984.98"/>
</g>
<!-- module.vpc.aws_subnet.db_priv2 -->
<g id="node40" class="node">
<title>module.vpc.aws_subnet.db_priv2</title>
<polygon fill="none" stroke="black" points="416,-1123 252,-1123 252,-1087 416,-1087 416,-1123"/>
<text text-anchor="middle" x="334" y="-1101.3" font-family="sans-serif" font-size="14.00">aws_subnet.db_priv2</text>
</g>
<!-- module.db.aws_db_subnet_group.two_tier_db&#45;&gt;module.vpc.aws_subnet.db_priv2 -->
<g id="edge28" class="edge">
<title>module.db.aws_db_subnet_group.two_tier_db&#45;&gt;module.vpc.aws_subnet.db_priv2</title>
<path fill="none" stroke="black" d="M882.3,-770.03C854.17,-777.02 821.6,-785 792,-792 658.53,-823.55 585.1,-760.23 491,-860 423.62,-931.44 522.41,-1006.59 455,-1078 446.95,-1086.53 436.83,-1092.64 425.9,-1096.98"/>
<polygon fill="black" stroke="black" points="424.44,-1093.78 416.12,-1100.35 426.72,-1100.4 424.44,-1093.78"/>
</g>
<!-- module.db.aws_security_group.rds_sg&#45;&gt;module.compute.aws_security_group.two_tier_sg -->
<g id="edge29" class="edge">
<title>module.db.aws_security_group.rds_sg&#45;&gt;module.compute.aws_security_group.two_tier_sg</title>
<path fill="none" stroke="black" d="M931.78,-626.81C901.49,-600.72 847.83,-549.64 820,-494 792.2,-438.42 832.79,-403.89 792,-357 780.26,-343.5 764.85,-333.44 748.39,-325.94"/>
<polygon fill="black" stroke="black" points="749.72,-322.71 739.15,-322.03 747,-329.15 749.72,-322.71"/>
</g>
<!-- module.db.aws_ssm_parameter.db_name -->
<g id="node19" class="node">
<title>module.db.aws_ssm_parameter.db_name</title>
<polygon fill="none" stroke="black" points="1364.5,-716 1139.5,-716 1139.5,-680 1364.5,-680 1364.5,-716"/>
<text text-anchor="middle" x="1252" y="-694.3" font-family="sans-serif" font-size="14.00">aws_ssm_parameter.db_name</text>
</g>
<!-- module.db.aws_ssm_parameter.db_password -->
<g id="node20" class="node">
<title>module.db.aws_ssm_parameter.db_password</title>
<polygon fill="none" stroke="black" points="1378,-662 1126,-662 1126,-626 1378,-626 1378,-662"/>
<text text-anchor="middle" x="1252" y="-640.3" font-family="sans-serif" font-size="14.00">aws_ssm_parameter.db_password</text>
</g>
<!-- module.db.aws_ssm_parameter.db_username -->
<g id="node21" class="node">
<title>module.db.aws_ssm_parameter.db_username</title>
<polygon fill="none" stroke="black" points="1379.5,-608 1124.5,-608 1124.5,-572 1379.5,-572 1379.5,-608"/>
<text text-anchor="middle" x="1252" y="-586.3" font-family="sans-serif" font-size="14.00">aws_ssm_parameter.db_username</text>
</g>
<!-- module.vpc.aws_eip.nat -->
<g id="node22" class="node">
<title>module.vpc.aws_eip.nat</title>
<polygon fill="none" stroke="black" points="383,-1393 285,-1393 285,-1357 383,-1357 383,-1393"/>
<text text-anchor="middle" x="334" y="-1371.3" font-family="sans-serif" font-size="14.00">aws_eip.nat</text>
</g>
<!-- module.vpc.aws_internet_gateway.two&#45;tier&#45;ig -->
<g id="node23" class="node">
<title>module.vpc.aws_internet_gateway.two&#45;tier&#45;ig</title>
<polygon fill="none" stroke="black" points="455,-1339 213,-1339 213,-1303 455,-1303 455,-1339"/>
<text text-anchor="middle" x="334" y="-1317.3" font-family="sans-serif" font-size="14.00">aws_internet_gateway.two&#45;tier&#45;ig</text>
</g>
<!-- module.vpc.aws_internet_gateway.two&#45;tier&#45;ig&#45;&gt;module.vpc.aws_vpc.two&#45;tier&#45;vpc -->
<g id="edge30" class="edge">
<title>module.vpc.aws_internet_gateway.two&#45;tier&#45;ig&#45;&gt;module.vpc.aws_vpc.two&#45;tier&#45;vpc</title>
<path fill="none" stroke="black" d="M225.54,-1302.9C221.1,-1300.3 216.88,-1297.34 213,-1294 130.3,-1222.83 106.47,-1085.04 99.89,-1025.52"/>
<polygon fill="black" stroke="black" points="103.35,-1024.95 98.85,-1015.35 96.39,-1025.66 103.35,-1024.95"/>
</g>
<!-- module.vpc.aws_nat_gateway.nat -->
<g id="node24" class="node">
<title>module.vpc.aws_nat_gateway.nat</title>
<polygon fill="none" stroke="black" points="723,-1359 560,-1359 560,-1323 723,-1323 723,-1359"/>
<text text-anchor="middle" x="641.5" y="-1337.3" font-family="sans-serif" font-size="14.00">aws_nat_gateway.nat</text>
</g>
<!-- module.vpc.aws_nat_gateway.nat&#45;&gt;module.vpc.aws_eip.nat -->
<g id="edge31" class="edge">
<title>module.vpc.aws_nat_gateway.nat&#45;&gt;module.vpc.aws_eip.nat</title>
<path fill="none" stroke="black" d="M559.83,-1349.98C507.46,-1355.81 440.42,-1363.27 393.22,-1368.52"/>
<polygon fill="black" stroke="black" points="392.72,-1365.05 383.16,-1369.64 393.49,-1372.01 392.72,-1365.05"/>
</g>
<!-- module.vpc.aws_nat_gateway.nat&#45;&gt;module.vpc.aws_subnet.bastion_pub -->
<g id="edge32" class="edge">
<title>module.vpc.aws_nat_gateway.nat&#45;&gt;module.vpc.aws_subnet.bastion_pub</title>
<path fill="none" stroke="black" d="M559.71,-1331.39C537.08,-1327.37 512.73,-1321.76 491,-1314 473.76,-1307.85 472.1,-1300.52 455,-1294 449.44,-1291.88 443.67,-1289.9 437.8,-1288.06"/>
<polygon fill="black" stroke="black" points="438.42,-1284.59 427.84,-1285.09 436.42,-1291.3 438.42,-1284.59"/>
</g>
<!-- module.vpc.aws_route.private_nat -->
<g id="node25" class="node">
<title>module.vpc.aws_route.private_nat</title>
<polygon fill="none" stroke="black" points="1039.5,-1286 870.5,-1286 870.5,-1250 1039.5,-1250 1039.5,-1286"/>
<text text-anchor="middle" x="955" y="-1264.3" font-family="sans-serif" font-size="14.00">aws_route.private_nat</text>
</g>
<!-- module.vpc.aws_route.private_nat&#45;&gt;module.vpc.aws_nat_gateway.nat -->
<g id="edge33" class="edge">
<title>module.vpc.aws_route.private_nat&#45;&gt;module.vpc.aws_nat_gateway.nat</title>
<path fill="none" stroke="black" d="M895.49,-1286.11C864.85,-1295.21 826.61,-1305.98 792,-1314 773.07,-1318.39 752.66,-1322.48 733.19,-1326.09"/>
<polygon fill="black" stroke="black" points="732.31,-1322.7 723.1,-1327.94 733.57,-1329.58 732.31,-1322.7"/>
</g>
<!-- module.vpc.aws_route_table.private -->
<g id="node27" class="node">
<title>module.vpc.aws_route_table.private</title>
<polygon fill="none" stroke="black" points="424.5,-1177 243.5,-1177 243.5,-1141 424.5,-1141 424.5,-1177"/>
<text text-anchor="middle" x="334" y="-1155.3" font-family="sans-serif" font-size="14.00">aws_route_table.private</text>
</g>
<!-- module.vpc.aws_route.private_nat&#45;&gt;module.vpc.aws_route_table.private -->
<g id="edge34" class="edge">
<title>module.vpc.aws_route.private_nat&#45;&gt;module.vpc.aws_route_table.private</title>
<path fill="none" stroke="black" d="M916.37,-1249.89C884.16,-1235.3 836.12,-1215.68 792,-1206 661.04,-1177.27 624.13,-1201.9 491,-1186 472.72,-1183.82 453.33,-1180.93 434.67,-1177.85"/>
<polygon fill="black" stroke="black" points="435.12,-1174.38 424.68,-1176.18 433.96,-1181.29 435.12,-1174.38"/>
</g>
<!-- module.vpc.aws_route.public_internet -->
<g id="node26" class="node">
<title>module.vpc.aws_route.public_internet</title>
<polygon fill="none" stroke="black" points="738.5,-1305 544.5,-1305 544.5,-1269 738.5,-1269 738.5,-1305"/>
<text text-anchor="middle" x="641.5" y="-1283.3" font-family="sans-serif" font-size="14.00">aws_route.public_internet</text>
</g>
<!-- module.vpc.aws_route.public_internet&#45;&gt;module.vpc.aws_internet_gateway.two&#45;tier&#45;ig -->
<g id="edge35" class="edge">
<title>module.vpc.aws_route.public_internet&#45;&gt;module.vpc.aws_internet_gateway.two&#45;tier&#45;ig</title>
<path fill="none" stroke="black" d="M544.26,-1297.71C519.21,-1300.5 491.8,-1303.55 465.32,-1306.5"/>
<polygon fill="black" stroke="black" points="464.77,-1303.04 455.22,-1307.62 465.55,-1309.99 464.77,-1303.04"/>
</g>
<!-- module.vpc.aws_route_table.public -->
<g id="node28" class="node">
<title>module.vpc.aws_route_table.public</title>
<polygon fill="none" stroke="black" points="421,-1231 247,-1231 247,-1195 421,-1195 421,-1231"/>
<text text-anchor="middle" x="334" y="-1209.3" font-family="sans-serif" font-size="14.00">aws_route_table.public</text>
</g>
<!-- module.vpc.aws_route.public_internet&#45;&gt;module.vpc.aws_route_table.public -->
<g id="edge36" class="edge">
<title>module.vpc.aws_route.public_internet&#45;&gt;module.vpc.aws_route_table.public</title>
<path fill="none" stroke="black" d="M544.37,-1274.46C526.36,-1270.76 507.89,-1266.03 491,-1260 473.76,-1253.85 472.1,-1246.52 455,-1240 447.26,-1237.05 439.1,-1234.37 430.84,-1231.95"/>
<polygon fill="black" stroke="black" points="431.68,-1228.55 421.11,-1229.23 429.8,-1235.29 431.68,-1228.55"/>
</g>
<!-- module.vpc.aws_route_table.private&#45;&gt;module.vpc.aws_vpc.two&#45;tier&#45;vpc -->
<g id="edge37" class="edge">
<title>module.vpc.aws_route_table.private&#45;&gt;module.vpc.aws_vpc.two&#45;tier&#45;vpc</title>
<path fill="none" stroke="black" d="M243.34,-1145.6C232.7,-1142.07 222.33,-1137.62 213,-1132 168.27,-1105.05 132.19,-1054.71 112.88,-1023.7"/>
<polygon fill="black" stroke="black" points="115.85,-1021.84 107.66,-1015.12 109.87,-1025.48 115.85,-1021.84"/>
</g>
<!-- module.vpc.aws_route_table.public&#45;&gt;module.vpc.aws_vpc.two&#45;tier&#45;vpc -->
<g id="edge38" class="edge">
<title>module.vpc.aws_route_table.public&#45;&gt;module.vpc.aws_vpc.two&#45;tier&#45;vpc</title>
<path fill="none" stroke="black" d="M246.76,-1202.48C234.73,-1198.55 223.07,-1193.21 213,-1186 155.97,-1145.13 121.56,-1066.51 106.5,-1024.71"/>
<polygon fill="black" stroke="black" points="109.77,-1023.45 103.17,-1015.17 103.16,-1025.76 109.77,-1023.45"/>
</g>
<!-- module.vpc.aws_route_table_association.alb_pub1 -->
<g id="node29" class="node">
<title>module.vpc.aws_route_table_association.alb_pub1</title>
<polygon fill="none" stroke="black" points="781.5,-1069 501.5,-1069 501.5,-1033 781.5,-1033 781.5,-1069"/>
<text text-anchor="middle" x="641.5" y="-1047.3" font-family="sans-serif" font-size="14.00">aws_route_table_association.alb_pub1</text>
</g>
<!-- module.vpc.aws_route_table_association.alb_pub1&#45;&gt;module.vpc.aws_route_table.public -->
<g id="edge39" class="edge">
<title>module.vpc.aws_route_table_association.alb_pub1&#45;&gt;module.vpc.aws_route_table.public</title>
<path fill="none" stroke="black" d="M503.09,-1069.14C498.84,-1071.78 494.79,-1074.72 491,-1078 452.76,-1111.13 492.53,-1152.06 455,-1186 447.89,-1192.43 439.58,-1197.44 430.71,-1201.32"/>
<polygon fill="black" stroke="black" points="429.35,-1198.09 421.3,-1204.97 431.89,-1204.62 429.35,-1198.09"/>
</g>
<!-- module.vpc.aws_route_table_association.alb_pub1&#45;&gt;module.vpc.aws_subnet.alb_pub1 -->
<g id="edge40" class="edge">
<title>module.vpc.aws_route_table_association.alb_pub1&#45;&gt;module.vpc.aws_subnet.alb_pub1</title>
<path fill="none" stroke="black" d="M503.09,-1032.86C498.84,-1030.22 494.79,-1027.28 491,-1024 452.76,-990.87 492.53,-949.94 455,-916 446.94,-908.71 437.33,-903.25 427.12,-899.18"/>
<polygon fill="black" stroke="black" points="428.2,-895.85 417.6,-895.82 425.87,-902.45 428.2,-895.85"/>
</g>
<!-- module.vpc.aws_route_table_association.alb_pub2 -->
<g id="node30" class="node">
<title>module.vpc.aws_route_table_association.alb_pub2</title>
<polygon fill="none" stroke="black" points="781.5,-1123 501.5,-1123 501.5,-1087 781.5,-1087 781.5,-1123"/>
<text text-anchor="middle" x="641.5" y="-1101.3" font-family="sans-serif" font-size="14.00">aws_route_table_association.alb_pub2</text>
</g>
<!-- module.vpc.aws_route_table_association.alb_pub2&#45;&gt;module.vpc.aws_route_table.public -->
<g id="edge41" class="edge">
<title>module.vpc.aws_route_table_association.alb_pub2&#45;&gt;module.vpc.aws_route_table.public</title>
<path fill="none" stroke="black" d="M507.01,-1123.11C501.44,-1125.72 496.07,-1128.67 491,-1132 466.88,-1147.83 478.77,-1169.66 455,-1186 447.57,-1191.11 439.32,-1195.26 430.74,-1198.64"/>
<polygon fill="black" stroke="black" points="429.54,-1195.35 421.3,-1202.02 431.9,-1201.95 429.54,-1195.35"/>
</g>
<!-- module.vpc.aws_route_table_association.alb_pub2&#45;&gt;module.vpc.aws_subnet.alb_pub2 -->
<g id="edge42" class="edge">
<title>module.vpc.aws_route_table_association.alb_pub2&#45;&gt;module.vpc.aws_subnet.alb_pub2</title>
<path fill="none" stroke="black" d="M538.35,-1086.94C502.67,-1080.64 462.84,-1073.6 427.95,-1067.43"/>
<polygon fill="black" stroke="black" points="428.23,-1063.92 417.77,-1065.63 427.01,-1070.82 428.23,-1063.92"/>
</g>
<!-- module.vpc.aws_route_table_association.bastion_pub -->
<g id="node31" class="node">
<title>module.vpc.aws_route_table_association.bastion_pub</title>
<polygon fill="none" stroke="black" points="792,-1251 491,-1251 491,-1215 792,-1215 792,-1251"/>
<text text-anchor="middle" x="641.5" y="-1229.3" font-family="sans-serif" font-size="14.00">aws_route_table_association.bastion_pub</text>
</g>
<!-- module.vpc.aws_route_table_association.bastion_pub&#45;&gt;module.vpc.aws_route_table.public -->
<g id="edge43" class="edge">
<title>module.vpc.aws_route_table_association.bastion_pub&#45;&gt;module.vpc.aws_route_table.public</title>
<path fill="none" stroke="black" d="M490.88,-1223.21C470.63,-1221.88 450.31,-1220.55 431.34,-1219.31"/>
<polygon fill="black" stroke="black" points="431.46,-1215.81 421.25,-1218.65 431,-1222.79 431.46,-1215.81"/>
</g>
<!-- module.vpc.aws_route_table_association.bastion_pub&#45;&gt;module.vpc.aws_subnet.bastion_pub -->
<g id="edge44" class="edge">
<title>module.vpc.aws_route_table_association.bastion_pub&#45;&gt;module.vpc.aws_subnet.bastion_pub</title>
<path fill="none" stroke="black" d="M490.88,-1249.65C473.23,-1251.62 455.52,-1253.59 438.7,-1255.46"/>
<polygon fill="black" stroke="black" points="437.9,-1252.03 428.35,-1256.61 438.68,-1258.98 437.9,-1252.03"/>
</g>
<!-- module.vpc.aws_route_table_association.db_priv1 -->
<g id="node32" class="node">
<title>module.vpc.aws_route_table_association.db_priv1</title>
<polygon fill="none" stroke="black" points="780,-1015 503,-1015 503,-979 780,-979 780,-1015"/>
<text text-anchor="middle" x="641.5" y="-993.3" font-family="sans-serif" font-size="14.00">aws_route_table_association.db_priv1</text>
</g>
<!-- module.vpc.aws_route_table_association.db_priv1&#45;&gt;module.vpc.aws_route_table.private -->
<g id="edge45" class="edge">
<title>module.vpc.aws_route_table_association.db_priv1&#45;&gt;module.vpc.aws_route_table.private</title>
<path fill="none" stroke="black" d="M503.09,-1015.14C498.84,-1017.78 494.79,-1020.72 491,-1024 452.76,-1057.13 492.53,-1098.06 455,-1132 448.74,-1137.66 441.55,-1142.22 433.87,-1145.88"/>
<polygon fill="black" stroke="black" points="432.5,-1142.66 424.65,-1149.77 435.23,-1149.1 432.5,-1142.66"/>
</g>
<!-- module.vpc.aws_route_table_association.db_priv1&#45;&gt;module.vpc.aws_subnet.db_priv1 -->
<g id="edge46" class="edge">
<title>module.vpc.aws_route_table_association.db_priv1&#45;&gt;module.vpc.aws_subnet.db_priv1</title>
<path fill="none" stroke="black" d="M502.94,-997C477.03,-997 450.53,-997 426.46,-997"/>
<polygon fill="black" stroke="black" points="426.3,-993.5 416.3,-997 426.3,-1000.5 426.3,-993.5"/>
</g>
<!-- module.vpc.aws_route_table_association.db_priv2 -->
<g id="node33" class="node">
<title>module.vpc.aws_route_table_association.db_priv2</title>
<polygon fill="none" stroke="black" points="780,-1177 503,-1177 503,-1141 780,-1141 780,-1177"/>
<text text-anchor="middle" x="641.5" y="-1155.3" font-family="sans-serif" font-size="14.00">aws_route_table_association.db_priv2</text>
</g>
<!-- module.vpc.aws_route_table_association.db_priv2&#45;&gt;module.vpc.aws_route_table.private -->
<g id="edge47" class="edge">
<title>module.vpc.aws_route_table_association.db_priv2&#45;&gt;module.vpc.aws_route_table.private</title>
<path fill="none" stroke="black" d="M502.94,-1159C479.97,-1159 456.54,-1159 434.75,-1159"/>
<polygon fill="black" stroke="black" points="434.53,-1155.5 424.53,-1159 434.53,-1162.5 434.53,-1155.5"/>
</g>
<!-- module.vpc.aws_route_table_association.db_priv2&#45;&gt;module.vpc.aws_subnet.db_priv2 -->
<g id="edge48" class="edge">
<title>module.vpc.aws_route_table_association.db_priv2&#45;&gt;module.vpc.aws_subnet.db_priv2</title>
<path fill="none" stroke="black" d="M538.35,-1140.94C502.19,-1134.55 461.78,-1127.41 426.56,-1121.18"/>
<polygon fill="black" stroke="black" points="426.75,-1117.66 416.29,-1119.37 425.53,-1124.56 426.75,-1117.66"/>
</g>
<!-- module.vpc.aws_route_table_association.web_priv1 -->
<g id="node34" class="node">
<title>module.vpc.aws_route_table_association.web_priv1</title>
<polygon fill="none" stroke="black" points="785,-905 498,-905 498,-869 785,-869 785,-905"/>
<text text-anchor="middle" x="641.5" y="-883.3" font-family="sans-serif" font-size="14.00">aws_route_table_association.web_priv1</text>
</g>
<!-- module.vpc.aws_route_table_association.web_priv1&#45;&gt;module.vpc.aws_route_table.private -->
<g id="edge49" class="edge">
<title>module.vpc.aws_route_table_association.web_priv1&#45;&gt;module.vpc.aws_route_table.private</title>
<path fill="none" stroke="black" d="M503.97,-905.17C499.32,-908.34 494.97,-911.93 491,-916 423.1,-985.72 521.86,-1061.28 455,-1132 448.99,-1138.36 441.83,-1143.37 434.04,-1147.31"/>
<polygon fill="black" stroke="black" points="432.38,-1144.22 424.64,-1151.45 435.21,-1150.62 432.38,-1144.22"/>
</g>
<!-- module.vpc.aws_route_table_association.web_priv1&#45;&gt;module.vpc.aws_subnet.web_priv1 -->
<g id="edge50" class="edge">
<title>module.vpc.aws_route_table_association.web_priv1&#45;&gt;module.vpc.aws_subnet.web_priv1</title>
<path fill="none" stroke="black" d="M534.51,-868.96C500.93,-863.24 464.02,-856.96 431.17,-851.37"/>
<polygon fill="black" stroke="black" points="431.56,-847.88 421.11,-849.66 430.38,-854.79 431.56,-847.88"/>
</g>
<!-- module.vpc.aws_route_table_association.web_priv2 -->
<g id="node35" class="node">
<title>module.vpc.aws_route_table_association.web_priv2</title>
<polygon fill="none" stroke="black" points="785,-961 498,-961 498,-925 785,-925 785,-961"/>
<text text-anchor="middle" x="641.5" y="-939.3" font-family="sans-serif" font-size="14.00">aws_route_table_association.web_priv2</text>
</g>
<!-- module.vpc.aws_route_table_association.web_priv2&#45;&gt;module.vpc.aws_route_table.private -->
<g id="edge51" class="edge">
<title>module.vpc.aws_route_table_association.web_priv2&#45;&gt;module.vpc.aws_route_table.private</title>
<path fill="none" stroke="black" d="M501.99,-961.09C498.1,-963.75 494.42,-966.71 491,-970 437.81,-1021.1 507.08,-1079.78 455,-1132 448.88,-1138.14 441.68,-1143.01 433.89,-1146.86"/>
<polygon fill="black" stroke="black" points="432.3,-1143.74 424.52,-1150.93 435.09,-1150.16 432.3,-1143.74"/>
</g>
<!-- module.vpc.aws_route_table_association.web_priv2&#45;&gt;module.vpc.aws_subnet.web_priv2 -->
<g id="edge52" class="edge">
<title>module.vpc.aws_route_table_association.web_priv2&#45;&gt;module.vpc.aws_subnet.web_priv2</title>
<path fill="none" stroke="black" d="M497.59,-943C475.17,-943 452.46,-943 431.42,-943"/>
<polygon fill="black" stroke="black" points="431.23,-939.5 421.23,-943 431.23,-946.5 431.23,-939.5"/>
</g>
<!-- module.vpc.aws_subnet.alb_pub1&#45;&gt;module.vpc.aws_vpc.two&#45;tier&#45;vpc -->
<g id="edge53" class="edge">
<title>module.vpc.aws_subnet.alb_pub1&#45;&gt;module.vpc.aws_vpc.two&#45;tier&#45;vpc</title>
<path fill="none" stroke="black" d="M250.29,-903.13C237.53,-906.58 224.72,-910.82 213,-916 180.68,-930.29 148.11,-954.21 125.83,-972.35"/>
<polygon fill="black" stroke="black" points="123.57,-969.67 118.1,-978.75 128.04,-975.07 123.57,-969.67"/>
</g>
<!-- module.vpc.aws_subnet.alb_pub2&#45;&gt;module.vpc.aws_vpc.two&#45;tier&#45;vpc -->
<g id="edge54" class="edge">
<title>module.vpc.aws_subnet.alb_pub2&#45;&gt;module.vpc.aws_vpc.two&#45;tier&#45;vpc</title>
<path fill="none" stroke="black" d="M252.29,-1032.94C239.16,-1029.97 225.7,-1026.91 213,-1024 203.59,-1021.84 193.76,-1019.57 183.97,-1017.3"/>
<polygon fill="black" stroke="black" points="184.74,-1013.88 174.21,-1015.03 183.15,-1020.7 184.74,-1013.88"/>
</g>
<!-- module.vpc.aws_subnet.bastion_pub&#45;&gt;module.vpc.aws_vpc.two&#45;tier&#45;vpc -->
<g id="edge55" class="edge">
<title>module.vpc.aws_subnet.bastion_pub&#45;&gt;module.vpc.aws_vpc.two&#45;tier&#45;vpc</title>
<path fill="none" stroke="black" d="M239.93,-1255.16C230.23,-1251.35 221.01,-1246.4 213,-1240 143.33,-1184.33 113.34,-1076.54 102.59,-1025.33"/>
<polygon fill="black" stroke="black" points="105.98,-1024.42 100.58,-1015.31 99.11,-1025.8 105.98,-1024.42"/>
</g>
<!-- module.vpc.aws_subnet.db_priv1&#45;&gt;module.vpc.aws_vpc.two&#45;tier&#45;vpc -->
<g id="edge56" class="edge">
<title>module.vpc.aws_subnet.db_priv1&#45;&gt;module.vpc.aws_vpc.two&#45;tier&#45;vpc</title>
<path fill="none" stroke="black" d="M251.95,-997C231.05,-997 208.43,-997 187.12,-997"/>
<polygon fill="black" stroke="black" points="187.1,-993.5 177.1,-997 187.1,-1000.5 187.1,-993.5"/>
</g>
<!-- module.vpc.aws_subnet.db_priv2&#45;&gt;module.vpc.aws_vpc.two&#45;tier&#45;vpc -->
<g id="edge57" class="edge">
<title>module.vpc.aws_subnet.db_priv2&#45;&gt;module.vpc.aws_vpc.two&#45;tier&#45;vpc</title>
<path fill="none" stroke="black" d="M251.89,-1091.3C238.6,-1087.77 225.21,-1083.4 213,-1078 180.68,-1063.71 148.11,-1039.79 125.83,-1021.65"/>
<polygon fill="black" stroke="black" points="128.04,-1018.93 118.1,-1015.25 123.57,-1024.33 128.04,-1018.93"/>
</g>
<!-- module.vpc.aws_subnet.web_priv1&#45;&gt;module.vpc.aws_vpc.two&#45;tier&#45;vpc -->
<g id="edge58" class="edge">
<title>module.vpc.aws_subnet.web_priv1&#45;&gt;module.vpc.aws_vpc.two&#45;tier&#45;vpc</title>
<path fill="none" stroke="black" d="M246.78,-847.29C234.95,-850.98 223.33,-855.77 213,-862 168.27,-888.95 132.19,-939.29 112.88,-970.3"/>
<polygon fill="black" stroke="black" points="109.87,-968.52 107.66,-978.88 115.85,-972.16 109.87,-968.52"/>
</g>
<!-- module.vpc.aws_subnet.web_priv2&#45;&gt;module.vpc.aws_vpc.two&#45;tier&#45;vpc -->
<g id="edge59" class="edge">
<title>module.vpc.aws_subnet.web_priv2&#45;&gt;module.vpc.aws_vpc.two&#45;tier&#45;vpc</title>
<path fill="none" stroke="black" d="M252.29,-961.06C239.16,-964.03 225.7,-967.09 213,-970 203.59,-972.16 193.76,-974.43 183.97,-976.7"/>
<polygon fill="black" stroke="black" points="183.15,-973.3 174.21,-978.97 184.74,-980.12 183.15,-973.3"/>
</g>
</g>
</svg>
